<svg width="33" height="34" viewBox="0 0 33 34" fill="none" xmlns="http://www.w3.org/2000/svg">
<path d="M28.5963 0H3.45347C2.54416 0 1.67209 0.375116 1.02911 1.04283C0.386126 1.71054 0.0249023 2.61615 0.0249023 3.56044L0.0249023 29.6703C0.0249023 30.6146 0.386126 31.5202 1.02911 32.1879C1.67209 32.8556 2.54416 33.2307 3.45347 33.2307H13.257V21.933H8.75705V16.6154H13.257V12.5624C13.257 7.95238 15.8999 5.40593 19.9478 5.40593C21.8863 5.40593 23.9135 5.76494 23.9135 5.76494V10.2897H21.6799C19.4792 10.2897 18.7928 11.7079 18.7928 13.1625V16.6154H23.7056L22.9199 21.933H18.7928V33.2307H28.5963C29.5056 33.2307 30.3777 32.8556 31.0207 32.1879C31.6637 31.5202 32.0249 30.6146 32.0249 29.6703V3.56044C32.0249 2.61615 31.6637 1.71054 31.0207 1.04283C30.3777 0.375116 29.5056 0 28.5963 0Z" fill="#32C5E7"/>
</svg>
