<svg width="20" height="20" viewBox="0 0 20 20" fill="none" xmlns="http://www.w3.org/2000/svg">
<path d="M19.4295 14.1325L15.0545 12.2575C14.8676 12.1778 14.6599 12.161 14.4627 12.2096C14.2654 12.2582 14.0893 12.3696 13.9608 12.527L12.0233 14.8942C8.98257 13.4605 6.53548 11.0134 5.10181 7.97269L7.46899 6.03519C7.62668 5.90694 7.73829 5.73081 7.78692 5.53345C7.83556 5.3361 7.81857 5.12828 7.73853 4.94144L5.86353 0.566443C5.77568 0.36504 5.62031 0.200601 5.42421 0.101481C5.22811 0.00236139 5.00357 -0.0252267 4.78931 0.0234739L0.726807 0.960974C0.520232 1.00868 0.335926 1.12499 0.203969 1.29093C0.0720118 1.45687 0.000196554 1.66264 0.000244164 1.87465C0.000244164 11.8942 8.12134 19.9996 18.1252 19.9996C18.3373 19.9998 18.5432 19.928 18.7092 19.796C18.8752 19.6641 18.9916 19.4797 19.0393 19.2731L19.9768 15.2106C20.0252 14.9953 19.997 14.7698 19.8971 14.5731C19.7972 14.3763 19.6319 14.2205 19.4295 14.1325Z" fill="#32C5E7"/>
</svg>
