<svg width="20" height="15" viewBox="0 0 20 15" fill="none" xmlns="http://www.w3.org/2000/svg">
<path d="M19.6213 4.95312C19.7737 4.83203 20.0002 4.94531 20.0002 5.13672V13.125C20.0002 14.1602 19.1604 15 18.1252 15H1.87524C0.840088 15 0.000244141 14.1602 0.000244141 13.125V5.14062C0.000244141 4.94531 0.2229 4.83594 0.37915 4.95703C1.25415 5.63672 2.41431 6.5 6.39868 9.39453C7.2229 9.99609 8.61353 11.2617 10.0002 11.2539C11.3948 11.2656 12.8127 9.97266 13.6057 9.39453C17.5901 6.5 18.7463 5.63281 19.6213 4.95312ZM10.0002 10C10.9065 10.0156 12.2112 8.85938 12.8674 8.38281C18.051 4.62109 18.4456 4.29297 19.6409 3.35547C19.8674 3.17969 20.0002 2.90625 20.0002 2.61719V1.875C20.0002 0.839844 19.1604 0 18.1252 0H1.87524C0.840088 0 0.000244141 0.839844 0.000244141 1.875V2.61719C0.000244141 2.90625 0.133057 3.17578 0.359619 3.35547C1.55493 4.28906 1.94946 4.62109 7.13306 8.38281C7.78931 8.85938 9.09399 10.0156 10.0002 10Z" fill="#32C5E7"/>
</svg>
