<svg width="33" height="34" viewBox="0 0 33 34" fill="none" xmlns="http://www.w3.org/2000/svg">
<path d="M16.0732 12.6588C15.3198 12.6591 14.5833 12.8914 13.9569 13.3264C13.3305 13.7613 12.8424 14.3793 12.5543 15.1023C12.2661 15.8253 12.1909 16.6208 12.3381 17.3882C12.4852 18.1556 12.8482 18.8604 13.3811 19.4136C13.914 19.9668 14.5929 20.3434 15.3319 20.496C16.0709 20.6485 16.8369 20.5701 17.533 20.2706C18.2291 19.9711 18.8241 19.464 19.2427 18.8134C19.6613 18.1627 19.8847 17.3978 19.8847 16.6154C19.8839 15.566 19.4821 14.5599 18.7674 13.818C18.0527 13.0762 17.0837 12.6592 16.0732 12.6588ZM24.9811 9.61763C24.7871 9.10718 24.4942 8.64357 24.1206 8.25554C23.7469 7.86752 23.3005 7.56336 22.809 7.36195C21.309 6.74703 17.7375 6.88499 16.0732 6.88499C14.409 6.88499 10.8411 6.74184 9.33681 7.36195C8.84527 7.56336 8.39883 7.86752 8.02517 8.25554C7.65152 8.64357 7.35863 9.10718 7.16467 9.61763C6.57324 11.1753 6.70539 14.8878 6.70539 16.6146C6.70539 18.3414 6.57324 22.0495 7.16753 23.6124C7.36149 24.1228 7.65438 24.5864 8.02803 24.9745C8.40168 25.3625 8.84813 25.6666 9.33967 25.8681C10.8397 26.483 14.4111 26.345 16.0761 26.345C17.7411 26.345 21.3075 26.4882 22.8118 25.8681C23.3034 25.6666 23.7498 25.3625 24.1235 24.9745C24.4971 24.5864 24.79 24.1228 24.984 23.6124C25.5804 22.0547 25.4432 18.3422 25.4432 16.6154C25.4432 14.8886 25.5804 11.1813 24.984 9.61837L24.9811 9.61763ZM16.0732 22.6978C14.9148 22.6978 13.7824 22.3411 12.8192 21.6727C11.856 21.0044 11.1053 20.0544 10.6619 18.943C10.2186 17.8316 10.1026 16.6086 10.3286 15.4288C10.5546 14.2489 11.1125 13.1651 11.9316 12.3145C12.7508 11.4638 13.7944 10.8845 14.9306 10.6498C16.0667 10.4151 17.2444 10.5356 18.3147 10.996C19.3849 11.4563 20.2997 12.2359 20.9433 13.2362C21.5869 14.2364 21.9304 15.4124 21.9304 16.6154C21.9313 17.4144 21.7805 18.2058 21.4865 18.9442C21.1924 19.6826 20.761 20.3535 20.217 20.9185C19.6729 21.4835 19.0268 21.9315 18.3158 22.2368C17.6047 22.5421 16.8427 22.6988 16.0732 22.6978ZM22.1718 11.6975C21.9014 11.6977 21.637 11.6145 21.4121 11.4586C21.1872 11.3027 21.0118 11.081 20.9082 10.8216C20.8046 10.5622 20.7775 10.2767 20.8301 10.0013C20.8828 9.72583 21.013 9.47279 21.2041 9.27416C21.3953 9.07553 21.6389 8.94024 21.9041 8.8854C22.1693 8.83056 22.4443 8.85864 22.6941 8.96607C22.944 9.0735 23.1575 9.25547 23.3078 9.48896C23.458 9.72245 23.5382 9.99697 23.5382 10.2778C23.539 10.4643 23.5043 10.6491 23.4361 10.8216C23.3679 10.9941 23.2676 11.151 23.1409 11.2832C23.0142 11.4153 22.8637 11.5202 22.6979 11.5919C22.5321 11.6635 22.3543 11.7004 22.1747 11.7005L22.1718 11.6975ZM28.6447 0H3.50181C2.5925 0 1.72043 0.375116 1.07745 1.04283C0.434466 1.71054 0.0732422 2.61615 0.0732422 3.56044L0.0732422 29.6703C0.0732422 30.6146 0.434466 31.5202 1.07745 32.1879C1.72043 32.8556 2.5925 33.2307 3.50181 33.2307H28.6447C29.554 33.2307 30.4261 32.8556 31.069 32.1879C31.712 31.5202 32.0732 30.6146 32.0732 29.6703V3.56044C32.0732 2.61615 31.712 1.71054 31.069 1.04283C30.4261 0.375116 29.554 0 28.6447 0ZM27.4218 21.511C27.3297 23.4121 26.9118 25.0966 25.5754 26.4807C24.239 27.8649 22.6182 28.3077 20.7897 28.3982C18.9032 28.5087 13.2475 28.5087 11.3611 28.3982C9.53039 28.3025 7.91396 27.8678 6.57539 26.4807C5.23681 25.0937 4.8161 23.4084 4.72896 21.511C4.62253 19.5512 4.62253 13.6773 4.72896 11.7198C4.8211 9.81865 5.23396 8.13411 6.57539 6.74999C7.91681 5.36588 9.53753 4.92824 11.3611 4.83774C13.2475 4.72722 18.9032 4.72722 20.7897 4.83774C22.6204 4.93343 24.2418 5.3681 25.5754 6.75519C26.909 8.14227 27.3347 9.82755 27.4218 11.7287C27.5282 13.681 27.5282 19.5498 27.4218 21.511Z" fill="#32C5E7"/>
</svg>
