<svg width="20" height="28" viewBox="0 0 20 28" fill="none" xmlns="http://www.w3.org/2000/svg">
<path d="M8.97229 27.1336C1.40469 15.7409 0 14.5716 0 10.3846C0 4.64933 4.47714 0 10 0C15.5229 0 20 4.64933 20 10.3846C20 14.5716 18.5953 15.7409 11.0277 27.1336C10.5311 27.8786 9.46885 27.8785 8.97229 27.1336ZM10 14.7115C12.3012 14.7115 14.1667 12.7743 14.1667 10.3846C14.1667 7.99491 12.3012 6.05769 10 6.05769C7.6988 6.05769 5.83333 7.99491 5.83333 10.3846C5.83333 12.7743 7.6988 14.7115 10 14.7115Z" fill="#32C5E7"/>
</svg>
