<svg width="32" height="34" viewBox="0 0 32 34" fill="none" xmlns="http://www.w3.org/2000/svg">
<path d="M32.0002 3.56044V29.6703C32.0002 31.636 30.4645 33.2307 28.5716 33.2307H11.0288C11.7288 32.0143 12.6288 30.2637 12.9859 28.8321C13.2002 27.9791 14.0788 24.5003 14.0788 24.5003C14.6502 25.6351 16.3216 26.592 18.1002 26.592C23.393 26.592 27.2002 21.5406 27.2002 15.2654C27.2002 9.24972 22.4716 4.74725 16.3859 4.74725C8.81447 4.74725 4.80018 10.0211 4.80018 15.7698C4.80018 18.4401 6.17161 21.7632 8.35733 22.8239C8.69304 22.9871 8.86447 22.9129 8.94304 22.5791C9.00018 22.3269 9.30018 21.0882 9.42875 20.517C9.47161 20.3316 9.45018 20.1758 9.30733 19.9978C8.5859 19.0854 8.00018 17.4091 8.00018 15.8439C8.00018 11.8236 10.9288 7.93681 15.9216 7.93681C20.2288 7.93681 23.2502 10.9854 23.2502 15.347C23.2502 20.2722 20.8573 23.6843 17.7359 23.6843C16.0145 23.6843 14.7288 22.2082 15.1359 20.3909C15.6288 18.225 16.5859 15.8885 16.5859 14.3233C16.5859 10.392 11.193 10.9335 11.193 16.1777C11.193 17.7874 11.7145 18.8852 11.7145 18.8852C9.47161 28.7357 9.1359 28.8618 9.60018 33.1714L9.75733 33.2307H3.42875C1.5359 33.2307 0.000183105 31.636 0.000183105 29.6703V3.56044C0.000183105 1.59478 1.5359 0 3.42875 0H28.5716C30.4645 0 32.0002 1.59478 32.0002 3.56044Z" fill="#32C5E7"/>
</svg>
