<svg width="33" height="34" viewBox="0 0 33 34" fill="none" xmlns="http://www.w3.org/2000/svg">
<path d="M28.62 0H3.47709C1.58424 0 0.0485229 1.59478 0.0485229 3.56044V29.6703C0.0485229 31.636 1.58424 33.2307 3.47709 33.2307H28.62C30.5128 33.2307 32.0485 31.636 32.0485 29.6703V3.56044C32.0485 1.59478 30.5128 0 28.62 0ZM25.1271 11.7791C25.1414 11.9868 25.1414 12.2019 25.1414 12.4096C25.1414 18.8406 20.4271 26.2508 11.8128 26.2508C9.15567 26.2508 6.69138 25.4497 4.61995 24.07C4.99852 24.1145 5.36281 24.1294 5.74852 24.1294C7.94138 24.1294 9.95567 23.3579 11.5628 22.0525C9.50567 22.0079 7.77709 20.606 7.18424 18.6775C7.90567 18.7887 8.55567 18.7887 9.29852 18.5884C7.15567 18.136 5.54852 16.1777 5.54852 13.8115V13.7522C6.16995 14.1156 6.89852 14.3382 7.66281 14.3678C7.02026 13.924 6.49351 13.3219 6.12957 12.6152C5.76564 11.9085 5.57583 11.1192 5.57709 10.3179C5.57709 9.41291 5.80567 8.58214 6.21281 7.86263C8.51995 10.8148 11.9842 12.7434 15.87 12.9511C15.2057 9.65027 17.5842 6.97252 20.4414 6.97252C21.7914 6.97252 23.0057 7.55851 23.8628 8.50796C24.92 8.30027 25.9342 7.8923 26.8342 7.33598C26.4842 8.46345 25.7485 9.4129 24.7771 10.0137C25.72 9.90988 26.6342 9.63543 27.4771 9.25714C26.8414 10.2288 26.0414 11.0893 25.1271 11.7791Z" fill="#32C5E7"/>
</svg>
